<?xml version="1.0" standalone="no"?>
<!DOCTYPE svg PUBLIC "-//W3C//DTD SVG 20010904//EN"
 "http://www.w3.org/TR/2001/REC-SVG-20010904/DTD/svg10.dtd">
<svg version="1.0" xmlns="http://www.w3.org/2000/svg"
 width="1409.000000pt" height="266.000000pt" viewBox="0 0 1409.000000 266.000000"
 preserveAspectRatio="xMidYMid meet">

<g transform="translate(0.000000,266.000000) scale(0.100000,-0.100000)"
fill="#000000" stroke="none">
<path d="M235 2646 c-89 -28 -153 -82 -196 -166 -34 -65 -34 -205 -1 -268 35
-66 88 -119 150 -149 l57 -28 1030 -3 c567 -2 1094 0 1173 3 l142 7 0 179 c0
155 -3 185 -20 233 -27 72 -88 139 -158 173 l-57 28 -1040 2 c-820 1 -1048 -1
-1080 -11z"/>
<path d="M10822 1870 c-286 -75 -468 -322 -448 -611 17 -253 168 -446 411
-526 68 -22 99 -26 205 -27 146 -1 202 10 319 66 149 71 268 218 306 379 19
82 19 219 0 294 -54 210 -237 385 -451 430 -97 21 -252 18 -342 -5z m315 -232
c42 -15 75 -38 120 -83 53 -53 64 -71 83 -134 75 -246 -72 -473 -315 -489
-220 -14 -381 142 -379 368 1 169 91 300 237 346 68 21 187 17 254 -8z"/>
<path d="M4130 1311 c0 -615 -2 -591 60 -591 58 0 60 9 60 261 l0 229 285 0
285 0 15 24 c12 18 13 30 6 50 l-11 26 -290 0 -290 0 0 230 0 230 325 0 c310
0 325 1 335 19 14 27 13 47 -6 65 -13 14 -63 16 -395 16 l-379 0 0 -559z"/>
<path d="M5172 1858 c-18 -18 -16 -711 2 -799 56 -262 293 -397 587 -335 171
36 279 141 324 311 20 77 23 803 3 823 -16 16 -70 16 -86 0 -9 -9 -12 -98 -12
-337 0 -358 -7 -435 -47 -523 -48 -108 -137 -164 -279 -175 -116 -9 -207 19
-277 86 -95 90 -107 153 -107 592 0 255 -3 348 -12 357 -7 7 -28 12 -48 12
-20 0 -41 -5 -48 -12z"/>
<path d="M6480 1851 c-6 -13 -10 -206 -10 -559 0 -509 1 -540 18 -555 21 -19
54 -22 83 -7 18 10 19 26 19 461 0 255 4 449 9 447 5 -1 169 -205 365 -453
225 -285 365 -453 381 -459 16 -6 35 -6 53 0 l27 9 3 554 c1 401 -1 558 -9
567 -13 16 -67 18 -89 4 -13 -8 -16 -74 -20 -459 l-5 -450 -365 459 -364 460
-43 0 c-32 0 -45 -5 -53 -19z"/>
<path d="M7822 1858 c-9 -9 -12 -147 -12 -559 0 -484 2 -549 16 -563 13 -14
51 -16 267 -16 304 1 375 11 497 71 143 71 245 195 284 345 20 79 21 241 1
317 -52 200 -221 358 -430 402 -91 19 -604 22 -623 3z m605 -111 c84 -24 141
-56 202 -112 103 -96 146 -208 139 -364 -8 -161 -68 -272 -193 -356 -107 -72
-139 -78 -407 -83 l-238 -4 0 465 c0 255 3 467 8 471 13 14 432 0 489 -17z"/>
<path d="M9186 1851 c-15 -10 -37 -32 -47 -47 -18 -27 -19 -56 -19 -515 0
-478 0 -487 21 -513 42 -53 100 -68 164 -42 68 29 69 36 75 373 l5 303 265
-322 c146 -177 280 -333 299 -345 63 -42 153 -21 198 46 l23 34 0 485 0 484
-39 39 c-35 35 -44 39 -90 39 -44 0 -56 -5 -89 -34 l-37 -34 -5 -311 -5 -311
-269 329 c-148 181 -281 336 -297 345 -37 22 -117 21 -153 -3z"/>
<path d="M11889 1843 c-59 -50 -59 -49 -59 -550 0 -505 0 -501 63 -547 27 -20
41 -21 315 -21 245 1 296 3 351 18 269 75 431 283 431 552 0 279 -167 489
-441 555 -73 17 -118 20 -356 20 l-271 0 -33 -27z m625 -221 c121 -55 192
-156 203 -289 10 -121 -23 -217 -99 -289 -86 -83 -162 -104 -373 -104 l-145 0
0 356 0 356 183 -4 c163 -3 187 -6 231 -26z"/>
<path d="M13234 1852 c-44 -35 -44 -40 -44 -562 l0 -502 34 -34 34 -34 372 0
c254 0 378 4 393 11 62 32 77 114 31 168 l-26 31 -284 0 -284 0 0 135 0 135
231 0 231 0 34 34 c26 26 34 42 34 71 0 29 -8 45 -34 71 l-34 34 -231 0 -231
0 0 125 0 125 271 0 271 0 29 31 c41 44 41 108 0 150 l-29 29 -374 0 c-338 0
-375 -2 -394 -18z"/>
<path d="M2212 1707 c-55 -17 -118 -81 -141 -143 -17 -44 -21 -78 -21 -172 0
-102 3 -124 24 -167 26 -57 66 -94 137 -131 32 -16 58 -39 76 -67 24 -36 28
-54 31 -137 3 -84 1 -100 -20 -140 -16 -32 -32 -47 -53 -54 -111 -32 -177 -84
-217 -171 -20 -44 -23 -66 -23 -175 0 -117 2 -129 28 -182 33 -67 91 -121 155
-142 69 -24 283 -22 338 3 59 27 112 77 141 135 23 45 27 66 31 171 3 104 1
127 -17 175 -25 66 -82 129 -145 160 -84 40 -110 98 -105 232 5 105 32 154
108 192 67 34 108 71 134 120 17 33 22 62 25 157 6 185 -33 274 -142 325 -46
21 -64 24 -181 23 -71 -1 -145 -6 -163 -12z"/>
<path d="M219 1666 c-128 -46 -209 -161 -209 -296 0 -117 60 -219 161 -275
l54 -30 798 -3 799 -2 -4 187 c-3 170 -6 193 -26 238 -29 63 -92 129 -157 163
l-50 27 -665 2 c-527 2 -673 0 -701 -11z"/>
<path d="M190 668 c-226 -117 -225 -439 2 -560 42 -22 51 -23 371 -26 l329 -3
-4 178 c-3 168 -5 181 -29 234 -36 76 -86 129 -161 170 l-63 34 -190 3 -190 3
-65 -33z"/>
</g>
</svg>
